<svg width="12" height="12" viewBox="0 0 12 12" fill="none" xmlns="http://www.w3.org/2000/svg">
<path fill-rule="evenodd" clip-rule="evenodd" d="M0.357576 0.0337929C0.223926 0.0810879 0.0780526 0.244087 0.0283882 0.401619C-0.0232938 0.56558 -0.00476053 0.706409 0.0868735 0.845878C0.123987 0.902393 1.14895 2.02544 2.36452 3.34153C4.11115 5.23258 4.58757 5.76149 4.63616 5.86347L4.69764 5.99249L4.70937 8.86632C4.72242 12.0632 4.70914 11.8224 4.87911 11.9436C4.97553 12.0123 5.18303 12.0197 5.27764 11.9577C5.33406 11.9207 5.98871 11.1831 6.76642 10.2802C6.93571 10.0837 7.09901 9.87254 7.1293 9.811L7.18438 9.69915L7.19612 7.84582L7.20784 5.99249L7.27135 5.86347C7.32022 5.76418 7.84382 5.18292 9.54311 3.34153C10.7576 2.02544 11.7817 0.902393 11.8187 0.845878C11.8558 0.789363 11.8933 0.69543 11.902 0.637133C11.9353 0.415085 11.7812 0.137837 11.5714 0.0422854C11.4814 0.00132451 11.2483 -0.000434976 5.96447 5.76798e-05C1.27054 0.000503416 0.437481 0.00550036 0.357576 0.0337929Z" fill="#455A64"/>
</svg>
