<svg width="40" height="40" viewBox="0 0 40 40" fill="none" xmlns="http://www.w3.org/2000/svg">
<g clip-path="url(#clip0_318:1329)">
<path d="M40.0009 12.2656C40.0009 13.6718 40.0009 15.0781 40.0009 16.4844C39.8144 16.6798 39.6318 16.8791 39.4408 17.0701C32.0401 24.4721 24.6387 31.8736 17.2367 39.2743C16.9905 39.5205 16.7359 39.7583 16.4852 40C16.329 40 16.1727 40 16.0165 40C15.9447 39.9742 15.8748 39.9386 15.8008 39.9237C10.8203 38.9271 5.83973 37.9312 0.858375 36.939C0.522917 36.8722 0.202148 36.7958 0.000976562 36.4842C0.000976562 35.078 0.000976562 33.6717 0.000976562 32.2655C1.15529 31.0956 2.3097 29.9255 3.50537 28.7137C2.52275 28.5155 1.62858 28.3559 0.746799 28.145C0.480724 28.0813 0.248612 27.875 0.000976562 27.7342C0.000976562 26.328 0.000976562 24.9217 0.000976562 23.5154C0.141619 23.3661 0.278511 23.213 0.423529 23.068C7.01467 16.4766 13.6062 9.8854 20.1991 3.29552C21.3016 2.19361 22.4105 1.09837 23.5165 0C23.6728 0 23.8291 0 23.9852 0C24.0442 0.0240655 24.101 0.0586532 24.1623 0.0708422C29.1539 1.06753 34.1468 2.05765 39.1353 3.06934C39.4414 3.13143 39.7131 3.36292 40.0009 3.51554C40.0009 4.92176 40.0009 6.32808 40.0009 7.7343C38.8473 8.90413 37.6936 10.074 36.5025 11.2818C37.012 11.3865 37.4302 11.4744 37.8493 11.5581C38.2685 11.6419 38.6877 11.7264 39.1085 11.8015C39.4563 11.8636 39.7915 11.9414 40.0009 12.2656ZM13.8384 25.751C13.8726 25.6179 13.8933 25.544 13.9104 25.4694C15.3062 19.3746 17.8869 13.8327 21.6451 8.83444C23.3717 6.53821 25.3954 4.51119 27.3621 2.43135C27.4658 2.32164 27.5647 2.20757 27.7033 2.05422C27.21 1.95608 26.7747 1.88919 26.3514 1.77751C26.1134 1.71469 25.9722 1.78022 25.8092 1.94535C24.7762 2.99225 23.7322 4.02821 22.6926 5.06876C16.9767 10.7898 12.105 17.1568 8.07771 24.1698C8.01052 24.2869 7.94947 24.4074 7.868 24.5591C9.88534 24.9619 11.8433 25.3528 13.8384 25.751ZM31.8031 2.99256C31.7766 2.94766 31.7503 2.90276 31.7238 2.85775C30.9764 2.70878 30.2261 2.5724 29.4831 2.40363C29.2462 2.34988 29.1066 2.40197 28.9451 2.57418C27.9306 3.65702 26.9069 4.73132 25.8808 5.80323C21.6824 10.1889 18.5405 15.2316 16.5265 20.9594C15.951 22.5959 15.5096 24.2797 15.0007 25.962C15.2148 26.0179 15.3297 26.0387 15.4378 26.0778C15.8644 26.2324 16.1621 26.1084 16.487 25.7733C17.9642 24.2504 19.4828 22.768 20.9685 21.2533C21.1415 21.0768 21.2792 20.7988 21.3049 20.5544C21.8119 15.7273 23.5982 11.4338 26.8071 7.79795C28.2496 6.16358 29.9098 4.72111 31.4754 3.19592C31.5655 3.10862 31.6931 3.05955 31.8031 2.99256ZM38.0032 4.13479C37.9364 4.11572 37.8424 4.08176 37.7454 4.06228C36.3949 3.79193 35.0418 3.53388 33.695 3.24645C33.4169 3.18707 33.2379 3.23968 33.0383 3.43022C31.8146 4.59787 30.5784 5.75239 29.3492 6.9143C26.3881 9.7134 24.3457 13.0713 23.2519 16.9973C23.0316 17.7883 22.8786 18.5981 22.6828 19.4511C27.8278 14.3073 32.9118 9.2249 38.0032 4.13479ZM1.91278 23.2517C1.93674 23.2902 1.9607 23.3287 1.98466 23.3674C2.0454 23.3867 2.10489 23.412 2.16687 23.4245C3.47943 23.6878 4.79533 23.9359 6.1032 24.2207C6.45428 24.2972 6.61889 24.2212 6.79787 23.9038C9.36048 19.3604 12.3128 15.0831 15.6049 11.0372C18.2716 7.75993 21.2106 4.7382 24.2156 1.77647C24.3198 1.67375 24.4182 1.56499 24.5191 1.45914C24.1176 1.22786 23.8738 1.37673 23.6015 1.64937C16.4842 8.78079 9.35829 15.9039 2.23146 23.0261C2.14083 23.1168 2.01977 23.1772 1.91278 23.2517ZM16.8765 29.0812C16.9792 28.9992 17.0124 28.9776 17.0398 28.9503C24.2191 21.772 31.3981 14.5934 38.5753 7.41301C38.6455 7.34269 38.7388 7.24903 38.7409 7.16444C38.7552 6.56134 38.7485 5.95783 38.7485 5.26139C37.9139 6.0967 37.153 6.85877 36.3915 7.62033C29.9767 14.0353 23.5614 20.4497 17.1497 26.8677C17.0372 26.9804 16.8959 27.1312 16.8889 27.2703C16.8595 27.8493 16.8765 28.4308 16.8765 29.0812ZM16.8766 37.7589C16.9133 37.7793 16.9501 37.7997 16.9867 37.8201C17.0768 37.7084 17.1574 37.5871 17.2582 37.4861C19.4099 35.3305 21.5636 33.1769 23.7173 31.0231C28.6413 26.0992 33.5659 21.1758 38.4874 16.2492C38.5924 16.1442 38.732 16.008 38.7377 15.8812C38.7644 15.291 38.7495 14.699 38.7495 14.0315C38.5855 14.187 38.4823 14.2802 38.3841 14.3785C33.8279 18.9339 29.272 23.4897 24.7163 28.0456C22.1852 30.5766 19.6535 33.1069 17.1261 35.6414C17.0226 35.7453 16.8936 35.8861 16.888 36.0145C16.8622 36.595 16.8766 37.1772 16.8766 37.7589ZM27.1957 20.4712C27.063 20.6452 26.9878 20.7709 26.8873 20.8716C23.5571 24.2056 20.226 27.5387 16.8883 30.865C16.7295 31.0233 16.5076 31.1174 16.3175 31.2449C16.1992 31.3242 16.033 31.3841 15.9778 31.4966C15.5146 32.44 15.0707 33.3928 14.6261 34.3452C14.5856 34.432 14.5809 34.5356 14.556 34.647C14.9415 34.7218 15.3058 34.7645 15.6517 34.8683C15.9444 34.9562 16.125 34.8769 16.3327 34.6683C19.4833 31.5046 22.6396 28.3465 25.8042 25.1967C26.119 24.8833 26.3031 24.5621 26.386 24.1076C26.602 22.9235 26.9034 21.7551 27.1957 20.4712ZM15.6258 29.8588C15.6258 29.1405 15.6143 28.4529 15.6315 27.766C15.6385 27.4887 15.5768 27.3683 15.2716 27.3085C11.792 26.6273 8.31618 25.9265 4.83939 25.2308C3.65675 24.9942 2.4741 24.7572 1.25082 24.5122C1.25082 25.2613 1.26186 25.9748 1.24488 26.6877C1.23884 26.9416 1.33364 27.0047 1.56919 27.0508C3.83771 27.4949 6.10268 27.957 8.36921 28.4111C10.7625 28.8905 13.1566 29.3664 15.6258 29.8588ZM1.25092 33.2627C1.25092 34.0228 1.26009 34.724 1.24582 35.4247C1.24092 35.6639 1.30718 35.7503 1.55617 35.7996C5.54354 36.5885 9.52789 37.3922 13.5134 38.191C14.2064 38.3299 14.9009 38.4618 15.6259 38.6031C15.6259 37.866 15.6121 37.1775 15.6327 36.4899C15.641 36.2143 15.5613 36.1177 15.2839 36.0633C12.0725 35.4322 8.86417 34.7847 5.65502 34.1421C4.20421 33.8516 2.7533 33.5626 1.25092 33.2627ZM27.8595 22.9642C31.213 19.6098 34.5903 16.2316 37.9661 12.8547C37.251 12.7128 36.485 12.5741 35.7263 12.4026C35.4897 12.3491 35.3478 12.4018 35.1835 12.5678C33.9379 13.8263 32.6758 15.0683 31.4341 16.3306C31.0243 16.7471 30.6342 17.1885 30.2788 17.6521C29.0499 19.2554 28.2413 21.0524 27.8595 22.9642ZM14.7416 30.9595C12.8871 30.589 11.0286 30.2149 9.16754 29.8537C9.07065 29.8349 8.88282 29.8976 8.85479 29.9686C8.42911 31.0479 8.02302 32.135 7.5988 33.2561C9.55707 33.6469 11.4125 34.0173 13.2223 34.3785C13.7352 33.2243 14.2289 32.1133 14.7416 30.9595ZM1.90194 32.118C3.44818 32.4252 4.92941 32.7195 6.3848 33.0086C6.80631 31.8228 7.20886 30.6903 7.61985 29.534C6.81089 29.3744 5.99756 29.2073 5.18048 29.0609C5.07786 29.0425 4.92461 29.1019 4.8471 29.1783C3.8849 30.1273 2.93228 31.0862 1.90194 32.118Z" fill="#455A64"/>
</g>
<defs>
<clipPath id="clip0_318:1329">
<rect width="40" height="40" fill="white"/>
</clipPath>
</defs>
</svg>
