<svg width="45" height="16" viewBox="0 0 45 16" fill="none" xmlns="http://www.w3.org/2000/svg">
<path fill-rule="evenodd" clip-rule="evenodd" d="M32.1344 0.775053C31.4313 0.496076 30.318 0.177246 28.9313 0.177246C25.3962 0.177246 22.9157 2.09023 22.8962 4.84014C22.8767 6.87269 24.6735 7.98859 26.0212 8.66611C27.4079 9.36355 27.8767 9.80194 27.8767 10.4196C27.8571 11.3562 26.7634 11.7946 25.7282 11.7946C24.3025 11.7946 23.5407 11.5754 22.3689 11.0374L21.9001 10.8182L21.4314 13.9865C22.2712 14.3851 23.8142 14.7238 25.4157 14.7438C29.1657 14.7438 31.6071 12.8507 31.6266 9.9215C31.6462 8.30743 30.6891 7.09188 28.6188 6.07561C27.3688 5.43795 26.6071 4.99956 26.6071 4.34197C26.6267 3.74417 27.2517 3.12643 28.6579 3.12643C29.8102 3.08658 30.6696 3.38548 31.3141 3.66446L31.6462 3.82387L32.1344 0.775053ZM9.14632 10.0411L12.6424 0.436296H16.4119L10.7869 14.5046H7.01743L3.81432 2.18987C6.07993 3.40541 8.11117 5.85642 8.7557 8.08823L9.14632 10.0411ZM15.6306 14.5246H19.1853L21.4314 0.436296H17.8572L15.6306 14.5246ZM41.2945 0.436296H38.5407C37.6813 0.436296 37.0368 0.695345 36.6657 1.61199L31.3532 14.5445H35.1032C35.1032 14.5445 35.7282 12.8109 35.8454 12.4322H40.4352C40.5328 12.9304 40.8649 14.5445 40.8649 14.5445H44.1656L41.2945 0.436296ZM38.3063 5.59737C38.3063 5.59737 37.1735 8.72589 36.8805 9.54289H39.8492C39.7125 8.82552 39.0289 5.45788 39.0289 5.45788L38.775 4.24234C38.6655 4.57767 38.5028 5.03685 38.4005 5.32559L38.4004 5.3258L38.4002 5.32654C38.3385 5.50053 38.2989 5.61235 38.3063 5.59737Z" fill="#00579F"/>
<path d="M5.88463 0.436279H0.142471L0.0838776 0.715256C4.57604 1.89094 7.54477 4.70064 8.7557 8.08821L7.50571 1.61197C7.3104 0.715256 6.66587 0.456206 5.88463 0.436279Z" fill="#FAA61A"/>
</svg>
