<svg width="18" height="23" viewBox="0 0 18 23" fill="none" xmlns="http://www.w3.org/2000/svg">
<g clip-path="url(#clip0_315:276)">
<path d="M0.000200272 10.9985C0.000200272 9.7534 0.1071 8.9634 2.7463 7.0386C4.9313 5.4452 11.9346 0 11.9346 0V9.0898H17.2607V22.1723H1.6638C0.7489 22.1723 0 21.4406 0 20.5468L0.000200272 10.9985Z" fill="#FFDB4D"/>
<path d="M11.9361 9.08984V14.3565L2.14941 20.8705L14.5227 16.9372V9.08984H11.9361Z" fill="white"/>
<path d="M7.46259 8.81778C8.03479 8.15158 8.87059 7.91628 9.32959 8.29258C9.78859 8.66888 9.69679 9.51418 9.12449 10.1803C8.55239 10.8465 7.71639 11.0814 7.25739 10.7051C6.79849 10.3289 6.89039 9.48398 7.46259 8.81778Z" fill="white"/>
</g>
<defs>
<clipPath id="clip0_315:276">
<rect width="17.26" height="22.17" fill="white"/>
</clipPath>
</defs>
</svg>
