<svg width="27" height="16" viewBox="0 0 27 16" fill="none" xmlns="http://www.w3.org/2000/svg">
<path d="M16.5562 14.0148H9.48148V1.70068H16.5562V14.0148Z" fill="#FF5F00"/>
<path d="M9.97447 7.80773C9.97447 10.3102 11.157 12.5624 13.0594 14.0139C11.6712 15.0649 9.92306 15.7156 8.07213 15.7156C3.59904 15.7156 0 12.2121 0 7.85778C0 3.50347 3.59904 0 8.07213 0C9.97447 0 11.6712 0.650644 13.0594 1.70168C11.157 3.05302 9.97447 5.30525 9.97447 7.80773Z" fill="#EB001B"/>
<path d="M26.1201 7.80878C26.1201 3.48162 22.5211 0 18.048 0C16.1456 0 14.4489 0.646587 13.0607 1.69107C14.9631 3.13346 16.1456 5.32191 16.1456 7.85852C16.1456 10.3951 14.9631 12.5836 13.0607 14.026C14.4489 15.0705 16.197 15.717 18.048 15.717C22.5211 15.6176 26.1201 12.1359 26.1201 7.80878Z" fill="#F79E1B"/>
</svg>
