<svg width="48" height="35" viewBox="0 0 48 35" fill="none" xmlns="http://www.w3.org/2000/svg">
<g clip-path="url(#clip0_317:318)">
<path d="M48.0009 30.117C47.7109 30.8108 47.1782 31.0643 46.4407 31.0472C45.2711 31.0201 44.1003 31.04 42.9286 31.04C42.0892 33.5394 40.4437 35.0309 37.7519 34.9709C35.1939 34.914 33.6345 33.4395 32.8436 31.04C32.5585 31.04 32.2634 31.04 31.9685 31.04C29.828 31.04 27.6875 31.0414 25.547 31.0376C25.3618 31.0373 25.1677 31.0324 24.9936 30.9786C24.6522 30.8729 24.4926 30.6112 24.5275 30.2606C24.5623 29.9094 24.7716 29.6942 25.1277 29.6483C25.2816 29.6285 25.4397 29.6386 25.5958 29.6385C27.9541 29.638 30.3126 29.6382 32.6962 29.6382C32.8215 29.0837 32.9433 28.5446 33.0748 27.9621C26.8828 27.9621 20.6802 27.9621 14.4504 27.9621C14.567 28.4973 14.6841 29.0349 14.8155 29.6382C14.9648 29.6382 15.1302 29.6382 15.2957 29.6382C17.4518 29.6382 19.6081 29.6286 21.764 29.6515C22.0119 29.6542 22.3277 29.7789 22.4828 29.9581C22.6073 30.1019 22.6326 30.4791 22.5272 30.6355C22.3944 30.8324 22.0898 31.006 21.8485 31.0213C21.086 31.0698 20.3184 31.0399 19.5528 31.04C17.9291 31.0401 16.3053 31.04 14.6548 31.04C14.3967 31.9479 13.9878 32.7573 13.3314 33.4298C10.6338 36.1936 6.00301 35.1597 4.78373 31.5006C4.64796 31.0932 4.45932 31.0243 4.09165 31.0334C3.24841 31.0543 2.40368 31.0182 1.56095 31.0466C0.823235 31.0714 0.290168 30.8123 0.00100708 30.1171C0.00100708 29.2137 0.00100708 28.3103 0.00100708 27.4069C0.207033 27.1615 0.428811 26.9271 0.612334 26.6659C0.69897 26.5425 0.751601 26.3683 0.752726 26.2166C0.763228 24.8461 0.758852 23.4755 0.758852 22.105C0.758852 15.4857 0.758602 8.86648 0.758977 2.24723C0.759102 0.73652 1.48582 0.00110419 2.98638 0.000979559C11.4073 -0.000142071 19.8284 -0.000142072 28.2494 0.000854934C29.7624 0.000979559 30.4747 0.720069 30.4756 2.23913C30.4758 2.76867 30.4817 3.29833 30.4733 3.82773C30.4657 4.31178 30.2059 4.60129 29.7926 4.61001C29.3638 4.61911 29.0807 4.31714 29.072 3.81403C29.0619 3.2223 29.0633 2.63033 29.071 2.03861C29.0765 1.61388 28.8843 1.39791 28.4532 1.40289C28.3282 1.40439 28.2033 1.40215 28.0783 1.40215C19.7666 1.40215 11.4549 1.40202 3.14328 1.40215C2.22104 1.40215 2.16515 1.45873 2.16515 2.38656C2.16515 8.16483 2.16515 13.943 2.16515 19.7212C2.16515 19.9046 2.16515 20.088 2.16515 20.335C2.96813 20.335 3.72797 20.333 4.48782 20.3361C4.73735 20.3371 4.98963 20.3305 5.23579 20.3638C5.87412 20.4499 6.27604 20.8836 6.2948 21.5282C6.3148 22.2129 6.31217 22.8988 6.2998 23.5838C6.28554 24.381 5.81086 24.8513 5.00213 24.8629C4.08139 24.876 3.16028 24.8659 2.20241 24.8659C2.20241 25.4097 2.20241 25.9271 2.20241 26.4966C3.36505 26.4966 4.5162 26.5031 5.66697 26.4864C5.77986 26.4848 5.90362 26.3546 6.00076 26.2616C8.08927 24.2644 11.1887 24.2627 13.2594 26.2501C13.3906 26.376 13.6002 26.4922 13.7736 26.4925C18.8044 26.5042 23.835 26.5006 28.8658 26.4984C28.9114 26.4984 28.957 26.4842 29.0697 26.4655C29.0697 26.2934 29.0697 26.1127 29.0697 25.9321C29.0697 19.8112 29.0695 13.6904 29.0698 7.5695C29.0698 6.83271 29.3142 6.47229 29.7997 6.49049C30.2675 6.50793 30.4756 6.83931 30.476 7.5685C30.4762 8.066 30.476 8.56339 30.476 9.11685C30.6786 9.12582 30.8586 9.1404 31.0388 9.14065C32.6792 9.14252 34.3203 9.16844 35.96 9.1343C37.5646 9.1009 38.8001 10.0843 39.2363 11.3604C39.759 12.8894 40.4112 14.3739 40.985 15.8861C41.2002 16.4531 41.5752 16.8212 42.1307 17.0358C43.0612 17.3952 43.9948 17.7473 44.9163 18.1288C46.2718 18.69 46.9528 19.7261 46.9661 21.1817C46.981 22.7858 46.9696 24.3901 46.9696 25.9943C46.9696 26.1639 46.9696 26.3336 46.9696 26.5033C47.0137 26.4746 47.0577 26.4459 47.1018 26.4174C47.4016 26.7471 47.7012 27.0769 48.001 27.4068C48.0009 28.3102 48.0009 29.2136 48.0009 30.117ZM45.539 25.3333C44.5815 25.3333 43.662 25.3439 42.7427 25.3301C41.9133 25.3178 41.4415 24.8366 41.4306 24.0155C41.4233 23.4707 41.4286 22.9257 41.429 22.381C41.4297 21.2124 41.834 20.8045 42.9958 20.8026C43.8199 20.8014 44.644 20.8024 45.5225 20.8024C45.3898 20.1334 45.0468 19.7055 44.4808 19.4664C43.864 19.2057 43.2449 18.9442 42.6094 18.7362C42.2034 18.6034 41.7664 18.5018 41.3423 18.4982C38.7971 18.4765 36.2517 18.4912 33.7064 18.4853C32.7017 18.483 32.2358 18.0195 32.2309 17.0327C32.225 15.8652 32.2252 14.6976 32.231 13.5301C32.2358 12.5694 32.7152 12.0873 33.6636 12.0839C34.7879 12.0798 35.9123 12.0829 37.0365 12.0829C37.3382 12.0829 37.6397 12.0829 37.9576 12.0829C37.6235 10.9639 37.0992 10.5519 36.0154 10.5463C34.2977 10.5372 32.58 10.5431 30.8623 10.5457C30.7441 10.5458 30.6261 10.5721 30.5103 10.5859C30.5103 15.9041 30.5103 21.1875 30.5103 26.5021C31.6366 26.5021 32.7286 26.5107 33.8202 26.4918C33.9649 26.4893 34.133 26.3726 34.2467 26.2637C36.3458 24.2518 39.4176 24.2562 41.5351 26.2777C41.6311 26.3693 41.7599 26.488 41.8748 26.4895C43.088 26.505 44.3016 26.4991 45.5388 26.4991C45.539 26.1026 45.539 25.7513 45.539 25.3333ZM37.8903 33.5928C39.9416 33.5897 41.6155 31.9267 41.6184 29.8888C41.6212 27.8506 39.9519 26.1835 37.9005 26.1759C35.827 26.1681 34.1358 27.8477 34.1484 29.9022C34.1609 31.9424 35.8374 33.5959 37.8903 33.5928ZM9.63096 33.5934C11.6911 33.5925 13.3523 31.9495 13.3661 29.8995C13.3797 27.8591 11.7147 26.1855 9.66209 26.1762C7.57896 26.1669 5.90162 27.8266 5.90775 29.8914C5.91375 31.9403 7.57733 33.5944 9.63096 33.5934ZM33.657 13.4852C33.657 14.7019 33.657 15.8626 33.657 17.0505C35.7541 17.0505 37.8312 17.0505 39.945 17.0505C39.4972 15.9124 39.0722 14.8149 38.6259 13.7258C38.582 13.6186 38.4091 13.4966 38.2949 13.4954C36.7681 13.4802 35.2412 13.4852 33.657 13.4852ZM46.5718 27.948C45.2644 27.948 43.9799 27.948 42.6887 27.948C42.8186 28.5208 42.941 29.0604 43.0653 29.6087C44.2302 29.6087 45.3931 29.6087 46.5718 29.6087C46.5718 29.0415 46.5718 28.504 46.5718 27.948ZM1.42031 29.6046C2.47269 29.6046 3.47707 29.6046 4.45657 29.6046C4.58483 29.0273 4.70472 28.4874 4.82499 27.9459C3.68459 27.9459 2.55733 27.9459 1.42031 27.9459C1.42031 28.5138 1.42031 29.0409 1.42031 29.6046ZM2.17966 23.4061C3.11365 23.4061 3.99726 23.4061 4.86424 23.4061C4.86424 22.8254 4.86424 22.304 4.86424 21.774C3.9515 21.774 3.07214 21.774 2.17966 21.774C2.17966 22.3371 2.17966 22.8632 2.17966 23.4061ZM45.5492 22.2619C44.6201 22.2619 43.7347 22.2619 42.8655 22.2619C42.8655 22.8427 42.8655 23.3654 42.8655 23.9318C43.3289 23.9318 43.7629 23.9318 44.1968 23.9318C44.6436 23.9318 45.0905 23.9318 45.5492 23.9318C45.5492 23.3359 45.5492 22.809 45.5492 22.2619Z" fill="#F13933"/>
<path d="M40.2265 29.8898C40.2243 31.1852 39.1579 32.2419 37.8654 32.2297C36.5717 32.2174 35.5193 31.1464 35.5328 29.8555C35.5461 28.5851 36.5967 27.5485 37.8765 27.543C39.1754 27.5374 40.2289 28.5895 40.2265 29.8898ZM38.8183 29.873C38.8131 29.3635 38.4057 28.9564 37.8944 28.9495C37.369 28.9425 36.9339 29.3741 36.9409 29.8955C36.9475 30.3974 37.366 30.8145 37.8702 30.8218C38.3953 30.8294 38.8237 30.4005 38.8183 29.873Z" fill="#F13933"/>
<path d="M7.2938 29.8783C7.29605 28.5748 8.35255 27.5289 9.65284 27.5431C10.9327 27.5571 11.9789 28.5976 11.9894 29.8671C12 31.1502 10.932 32.2244 9.64046 32.2298C8.3438 32.2351 7.29155 31.1807 7.2938 29.8783ZM8.7036 29.8605C8.69285 30.3934 9.10915 30.8233 9.63546 30.8223C10.137 30.8214 10.5652 30.4071 10.5802 29.908C10.5957 29.3947 10.158 28.9499 9.63634 28.949C9.12477 28.9481 8.71385 29.3498 8.7036 29.8605Z" fill="#F13933"/>
</g>
<defs>
<clipPath id="clip0_317:318">
<rect width="48" height="35" fill="white"/>
</clipPath>
</defs>
</svg>
