<svg width="82" height="12" viewBox="0 0 82 12" fill="none" xmlns="http://www.w3.org/2000/svg">
<path fill-rule="evenodd" clip-rule="evenodd" d="M6.0511 0.0521359C6.00381 0.0824253 5.94901 0.153092 5.91373 0.229269C5.88143 0.298957 5.52567 1.17461 5.12314 2.17514C4.52713 3.65657 4.38217 3.99605 4.34228 4.00384C4.31535 4.0091 3.38994 4.07546 2.28583 4.15129C0.129017 4.29941 0.168122 4.29434 0.0650596 4.43908C-0.00379557 4.53577 -0.0214501 4.71996 0.0287955 4.81715C0.05098 4.86002 0.732137 5.45511 1.64836 6.23201C2.79742 7.20638 3.22635 7.58381 3.21761 7.61288C3.21099 7.63487 2.98386 8.53988 2.7129 9.624C2.3507 11.0731 2.22342 11.6197 2.23226 11.6879C2.26683 11.9542 2.55501 12.0832 2.79965 11.942C2.85352 11.9109 3.64962 11.4152 4.56875 10.8405C5.48787 10.2657 6.25162 9.79541 6.26596 9.79541C6.28029 9.79541 7.04335 10.2658 7.96166 10.8406C8.87996 11.4155 9.67537 11.9113 9.72924 11.9422C9.97415 12.0831 10.2621 11.954 10.2966 11.6879C10.3055 11.6197 10.1782 11.0731 9.81599 9.624C9.54503 8.53988 9.31795 7.63501 9.31138 7.61317C9.30276 7.58452 9.73896 7.2009 10.8799 6.23362C11.8161 5.44002 12.4763 4.86306 12.4994 4.81844C12.5504 4.71994 12.5332 4.53644 12.4638 4.43908C12.3591 4.29199 12.401 4.29743 10.2406 4.14987C9.13785 4.07453 8.21354 4.00871 8.18661 4.00359C8.14665 3.99598 7.99853 3.64835 7.3815 2.11392C6.96563 1.07972 6.60752 0.201746 6.5857 0.162862C6.49834 0.00717929 6.21344 -0.0518324 6.0511 0.0521359Z" fill="#F13933"/>
<path fill-rule="evenodd" clip-rule="evenodd" d="M23.38 0.0521359C23.3327 0.0824253 23.2779 0.153092 23.2426 0.229269C23.2103 0.298957 22.8546 1.17461 22.452 2.17514C21.856 3.65657 21.711 3.99605 21.6712 4.00384C21.6442 4.0091 20.7188 4.07546 19.6147 4.15129C17.4579 4.29941 17.497 4.29434 17.3939 4.43908C17.3251 4.53577 17.3074 4.71996 17.3577 4.81715C17.3799 4.86002 18.061 5.45511 18.9772 6.23201C20.1263 7.20638 20.5552 7.58381 20.5465 7.61288C20.5399 7.63487 20.3127 8.53988 20.0418 9.624C19.6796 11.0731 19.5523 11.6197 19.5611 11.6879C19.5957 11.9542 19.8839 12.0832 20.1285 11.942C20.1824 11.9109 20.9785 11.4152 21.8976 10.8405C22.8167 10.2657 23.5805 9.79541 23.5948 9.79541C23.6092 9.79541 24.3722 10.2658 25.2905 10.8406C26.2088 11.4155 27.0043 11.9113 27.0581 11.9422C27.303 12.0831 27.591 11.954 27.6255 11.6879C27.6344 11.6197 27.5071 11.0731 27.1449 9.624C26.8739 8.53988 26.6468 7.63501 26.6403 7.61317C26.6316 7.58452 27.0678 7.2009 28.2088 6.23362C29.145 5.44002 29.8052 4.86306 29.8283 4.81844C29.8792 4.71994 29.862 4.53644 29.7927 4.43908C29.688 4.29199 29.7298 4.29743 27.5695 4.14987C26.4667 4.07453 25.5424 4.00871 25.5155 4.00359C25.4755 3.99598 25.3274 3.64835 24.7104 2.11392C24.2945 1.07972 23.9364 0.201746 23.9146 0.162862C23.8272 0.00717929 23.5423 -0.0518324 23.38 0.0521359Z" fill="#F13933"/>
<path fill-rule="evenodd" clip-rule="evenodd" d="M40.7089 0.0521359C40.6616 0.0824253 40.6068 0.153092 40.5715 0.229269C40.5392 0.298957 40.1834 1.17461 39.7809 2.17514C39.1849 3.65657 39.0399 3.99605 39 4.00384C38.9731 4.0091 38.0477 4.07546 36.9436 4.15129C34.7868 4.29941 34.8259 4.29434 34.7228 4.43908C34.654 4.53577 34.6363 4.71996 34.6866 4.81715C34.7087 4.86002 35.3899 5.45511 36.3061 6.23201C37.4552 7.20638 37.8841 7.58381 37.8754 7.61288C37.8688 7.63487 37.6416 8.53988 37.3707 9.624C37.0085 11.0731 36.8812 11.6197 36.89 11.6879C36.9246 11.9542 37.2128 12.0832 37.4574 11.942C37.5113 11.9109 38.3074 11.4152 39.2265 10.8405C40.1456 10.2657 40.9094 9.79541 40.9237 9.79541C40.9381 9.79541 41.7011 10.2658 42.6194 10.8406C43.5377 11.4155 44.3331 11.9113 44.387 11.9422C44.6319 12.0831 44.9198 11.954 44.9544 11.6879C44.9632 11.6197 44.836 11.0731 44.4738 9.624C44.2028 8.53988 43.9757 7.63501 43.9691 7.61317C43.9605 7.58452 44.3967 7.2009 45.5377 6.23362C46.4739 5.44002 47.1341 4.86306 47.1572 4.81844C47.2081 4.71994 47.1909 4.53644 47.1216 4.43908C47.0168 4.29199 47.0587 4.29743 44.8984 4.14987C43.7956 4.07453 42.8713 4.00871 42.8444 4.00359C42.8044 3.99598 42.6563 3.64835 42.0393 2.11392C41.6234 1.07972 41.2653 0.201746 41.2435 0.162862C41.1561 0.00717929 40.8712 -0.0518324 40.7089 0.0521359Z" fill="#F13933"/>
<path fill-rule="evenodd" clip-rule="evenodd" d="M58.0377 0.0521359C57.9905 0.0824253 57.9357 0.153092 57.9004 0.229269C57.8681 0.298957 57.5123 1.17461 57.1098 2.17514C56.5138 3.65657 56.3688 3.99605 56.3289 4.00384C56.302 4.0091 55.3766 4.07546 54.2725 4.15129C52.1157 4.29941 52.1548 4.29434 52.0517 4.43908C51.9829 4.53577 51.9652 4.71996 52.0154 4.81715C52.0376 4.86002 52.7188 5.45511 53.635 6.23201C54.7841 7.20638 55.213 7.58381 55.2043 7.61288C55.1976 7.63487 54.9705 8.53988 54.6995 9.624C54.3373 11.0731 54.2101 11.6197 54.2189 11.6879C54.2535 11.9542 54.5417 12.0832 54.7863 11.942C54.8402 11.9109 55.6363 11.4152 56.5554 10.8405C57.4745 10.2657 58.2383 9.79541 58.2526 9.79541C58.2669 9.79541 59.03 10.2658 59.9483 10.8406C60.8666 11.4155 61.662 11.9113 61.7159 11.9422C61.9608 12.0831 62.2487 11.954 62.2833 11.6879C62.2921 11.6197 62.1648 11.0731 61.8026 9.624C61.5317 8.53988 61.3046 7.63501 61.298 7.61317C61.2894 7.58452 61.7256 7.2009 62.8666 6.23362C63.8027 5.44002 64.463 4.86306 64.4861 4.81844C64.537 4.71994 64.5198 4.53644 64.4505 4.43908C64.3457 4.29199 64.3876 4.29743 62.2273 4.14987C61.1245 4.07453 60.2002 4.00871 60.1733 4.00359C60.1333 3.99598 59.9852 3.64835 59.3682 2.11392C58.9523 1.07972 58.5942 0.201746 58.5724 0.162862C58.485 0.00717929 58.2001 -0.0518324 58.0377 0.0521359Z" fill="#F13933"/>
<path fill-rule="evenodd" clip-rule="evenodd" d="M75.3666 0.0521359C75.3193 0.0824253 75.2645 0.153092 75.2293 0.229269C75.197 0.298957 74.8412 1.17461 74.4387 2.17514C73.8427 3.65657 73.6977 3.99605 73.6578 4.00384C73.6309 4.0091 72.7055 4.07546 71.6014 4.15129C69.4445 4.29941 69.4837 4.29434 69.3806 4.43908C69.3117 4.53577 69.2941 4.71996 69.3443 4.81715C69.3665 4.86002 70.0477 5.45511 70.9639 6.23201C72.113 7.20638 72.5419 7.58381 72.5331 7.61288C72.5265 7.63487 72.2994 8.53988 72.0284 9.624C71.6662 11.0731 71.5389 11.6197 71.5478 11.6879C71.5824 11.9542 71.8705 12.0832 72.1152 11.942C72.169 11.9109 72.9651 11.4152 73.8843 10.8405C74.8034 10.2657 75.5671 9.79541 75.5815 9.79541C75.5958 9.79541 76.3589 10.2658 77.2772 10.8406C78.1955 11.4155 78.9909 11.9113 79.0448 11.9422C79.2897 12.0831 79.5776 11.954 79.6122 11.6879C79.621 11.6197 79.4937 11.0731 79.1315 9.624C78.8606 8.53988 78.6335 7.63501 78.6269 7.61317C78.6183 7.58452 79.0545 7.2009 80.1955 6.23362C81.1316 5.44002 81.7919 4.86306 81.8149 4.81844C81.8659 4.71994 81.8487 4.53644 81.7794 4.43908C81.6746 4.29199 81.7165 4.29743 79.5561 4.14987C78.4534 4.07453 77.5291 4.00871 77.5021 4.00359C77.4622 3.99598 77.3141 3.64835 76.697 2.11392C76.2812 1.07972 75.923 0.201746 75.9012 0.162862C75.8139 0.00717929 75.529 -0.0518324 75.3666 0.0521359Z" fill="#F13933"/>
</svg>
